HIERARCHY
ROOT Hips
{
	OFFSET 0.00000 0.00000 0.00000
	CHANNELS 6 Xposition Yposition Zposition Zrotation Yrotation Xrotation 
	JOINT LHipJoint
	{
		OFFSET 0 0 0
		CHANNELS 3 Zrotation Yrotation Xrotation
		JOINT LeftUpLeg
		{
			OFFSET 1.80322 -1.53100 0.99595
			CHANNELS 3 Zrotation Yrotation Xrotation
			JOINT LeftLeg
			{
				OFFSET 2.25177 -6.18669 0.00000
				CHANNELS 3 Zrotation Yrotation Xrotation
				JOINT LeftFoot
				{
					OFFSET 2.26601 -6.22582 0.00000
					CHANNELS 3 Zrotation Yrotation Xrotation
					JOINT LeftToeBase
					{
						OFFSET 0.23701 -0.65119 2.15848
						CHANNELS 3 Zrotation Yrotation Xrotation
						End Site
						{
							OFFSET 0.00000 -0.00000 1.12949
						}
					}
				}
			}
		}
	}
	JOINT RHipJoint
	{
		OFFSET 0 0 0
		CHANNELS 3 Zrotation Yrotation Xrotation
		JOINT RightUpLeg
		{
			OFFSET -1.93977 -1.53100 0.99595
			CHANNELS 3 Zrotation Yrotation Xrotation
			JOINT RightLeg
			{
				OFFSET -2.28036 -6.26523 0.00000
				CHANNELS 3 Zrotation Yrotation Xrotation
				JOINT RightFoot
				{
					OFFSET -2.25490 -6.19528 0.00000
					CHANNELS 3 Zrotation Yrotation Xrotation
					JOINT RightToeBase
					{
						OFFSET -0.28375 -0.77960 2.23137
						CHANNELS 3 Zrotation Yrotation Xrotation
						End Site
						{
							OFFSET -0.00000 -0.00000 1.17899
						}
					}
				}
			}
		}
	}
	JOINT LowerBack
	{
		OFFSET 0 0 0
		CHANNELS 3 Zrotation Yrotation Xrotation
		JOINT Spine
		{
			OFFSET -0.00088 2.12090 -0.02806
			CHANNELS 3 Zrotation Yrotation Xrotation
			JOINT Spine1
			{
				OFFSET -0.00286 2.09666 0.12974
				CHANNELS 3 Zrotation Yrotation Xrotation
				JOINT Neck
				{
					OFFSET 0 0 0
					CHANNELS 3 Zrotation Yrotation Xrotation
					JOINT Neck1
					{
						OFFSET 0.07328 1.83526 0.07290
						CHANNELS 3 Zrotation Yrotation Xrotation
						JOINT Head
						{
							OFFSET -0.06683 1.74974 -0.49542
							CHANNELS 3 Zrotation Yrotation Xrotation
							End Site
							{
								OFFSET -0.03398 1.85163 -0.17573
							}
						}
					}
				}
				JOINT LeftShoulder
				{
					OFFSET 0 0 0
					CHANNELS 3 Zrotation Yrotation Xrotation
					JOINT LeftArm
					{
						OFFSET 3.02113 1.18018 0.40602
						CHANNELS 3 Zrotation Yrotation Xrotation
						JOINT LeftForeArm
						{
							OFFSET 4.58538 -0.00000 -0.00000
							CHANNELS 3 Zrotation Yrotation Xrotation
							JOINT LeftHand
							{
								OFFSET 2.68935 -0.00000 -0.00000
								CHANNELS 3 Zrotation Yrotation Xrotation
								JOINT LeftFingerBase
								{
									OFFSET 0 0 0
									CHANNELS 3 Zrotation Yrotation Xrotation
									JOINT LeftHandIndex1
									{
										OFFSET 0.58506 -0.00000 -0.00000
										CHANNELS 3 Zrotation Yrotation Xrotation
										End Site
										{
											OFFSET 0.47169 -0.00000 -0.00000
										}
									}
								}
								JOINT LThumb
								{
									OFFSET 0 0 0
									CHANNELS 3 Zrotation Yrotation Xrotation
									End Site
									{
										OFFSET 0.47889 -0.00000 0.47889
									}
								}
							}
						}
					}
				}
				JOINT RightShoulder
				{
					OFFSET 0 0 0
					CHANNELS 3 Zrotation Yrotation Xrotation
					JOINT RightArm
					{
						OFFSET -2.95074 1.18843 0.31430
						CHANNELS 3 Zrotation Yrotation Xrotation
						JOINT RightForeArm
						{
							OFFSET -4.47450 -0.00000 -0.00000
							CHANNELS 3 Zrotation Yrotation Xrotation
							JOINT RightHand
							{
								OFFSET -2.93896 -0.00000 -0.00000
								CHANNELS 3 Zrotation Yrotation Xrotation
								JOINT RightFingerBase
								{
									OFFSET 0 0 0
									CHANNELS 3 Zrotation Yrotation Xrotation
									JOINT RightHandIndex1
									{
										OFFSET -0.40509 -0.00000 -0.00000
										CHANNELS 3 Zrotation Yrotation Xrotation
										End Site
										{
											OFFSET -0.32660 -0.00000 -0.00000
										}
									}
								}
								JOINT RThumb
								{
									OFFSET 0 0 0
									CHANNELS 3 Zrotation Yrotation Xrotation
									End Site
									{
										OFFSET -0.33158 -0.00000 0.33158
									}
								}
							}
						}
					}
				}
			}
		}
	}
}
MOTION
Frames: 15
Frame Time: .0083333
0.3311 15.9682 6.2655 0 0 0 0 0 0 -21 0 0 0 0 0 0 0 0 0 0 0 0 0 0 21 0 0 0 0 0 0 0 0 0 0 0 0 0 0 0 0 0 0 0 0 0 0 -16 0 0 21 0 0 11 0 0 0 -8 0 0 0 0 0 0 0 0 0 0 0 0 0 0 0 0 0 0 0 0 8 0 0 0 0 0 0 0 0 0 0 0 0 0 0 0 0 0
0.3311 15.9682 6.2655 0.3440 -2.5715 8.6748 0.0000 0.0000 0.0000 -20.2321 -19.1636 3.9992 0.0352 1.2118 3.3318 -1.3405 20.7536 -14.0030 0.0027 0.3332 0.9154 0.0000 0.0000 0.0000 18.3188 11.9232 -6.6742 -0.9054 -6.0636 16.9690 -0.2371 -9.2086 -16.6814 -0.0308 1.1333 -3.1157 0.7663 -1.3532 -6.1168 0.2586 -1.8298 -8.1137 -0.1889 -0.9558 -5.0070 8.7628 3.2948 -10.2015 -6.9615 4.9820 32.2987 -3.5476 2.4026 12.8343 -0.0000 -0.0000 0.0000 -90.8614 12.1535 11.3120 16.3862 -26.0415 -3.8139 -0.0000 -0.0000 18.2049 5.3669 14.8195 1.3765 -7.1250 0.0000 -0.0000 -20.2051 43.8823 0.5824 -0.0000 -0.0000 0.0000 87.6923 -7.1412 19.7885 -13.5536 22.0930 -2.6579 0.0000 0.0000 10.0333 -9.8723 -9.6765 1.6755 7.1250 -0.0000 -0.0000 14.8242 -39.3713 2.1104
0.3304 15.9675 6.2659 0.3321 -2.5856 8.6678 0.0000 0.0000 0.0000 -20.2179 -19.1567 3.9720 0.0367 1.2363 3.3993 -1.3382 20.7463 -14.0335 0.0024 0.3134 0.8610 0.0000 0.0000 0.0000 18.3393 11.8932 -6.6703 -0.9044 -6.0606 16.9604 -0.2399 -9.1776 -16.6824 -0.0311 1.1390 -3.1312 0.7613 -1.3523 -6.1117 0.2691 -1.8281 -8.1205 -0.1750 -0.9544 -5.0165 8.7062 3.2478 -10.1941 -6.8806 4.9030 32.3842 -3.5197 2.3710 12.8565 -0.0000 0.0000 0.0000 -90.9046 12.2050 11.4001 16.4102 -26.0737 -3.8245 -0.0000 -0.0000 18.3215 5.3779 14.7770 1.3755 -7.1250 0.0000 -0.0000 -20.1804 43.8435 0.6019 -0.0000 0.0000 0.0000 87.7069 -7.1397 20.3873 -13.6720 22.2638 -2.7026 0.0000 0.0000 9.8684 -9.9392 -10.1600 1.7705 7.1250 -0.0000 -0.0000 14.8841 -39.8499 1.9392
0.3302 15.9685 6.2665 0.3355 -2.6019 8.6652 0.0000 0.0000 0.0000 -20.2225 -19.1443 3.9604 0.0372 1.2444 3.4214 -1.3368 20.7413 -14.0486 0.0023 0.3069 0.8433 0.0000 0.0000 0.0000 18.3307 11.8842 -6.6724 -0.9035 -6.0575 16.9513 -0.2406 -9.1458 -16.6565 -0.0310 1.1360 -3.1232 0.7638 -1.3433 -6.1479 0.2587 -1.8169 -8.1067 -0.1882 -0.9492 -4.9819 8.6933 3.2124 -10.2241 -6.8118 4.8325 32.4822 -3.5031 2.3465 12.8951 0.0000 -0.0000 0.0000 -90.9085 12.1636 11.4600 16.3667 -26.0153 -3.8054 -0.0000 -0.0000 18.4256 5.4450 14.6891 1.3846 -7.1250 0.0000 -0.0000 -20.0910 43.7682 0.6381 0.0000 -0.0000 0.0000 87.7562 -7.0815 20.6727 -13.7158 22.3269 -2.7192 0.0000 0.0000 9.9552 -9.8998 -9.9959 1.7352 7.1250 -0.0000 -0.0000 14.8777 -39.6861 1.9999
0.3296 15.9682 6.2665 0.3305 -2.5980 8.6685 0.0000 0.0000 0.0000 -20.2120 -19.1508 3.9500 0.0376 1.2520 3.4424 -1.3336 20.7286 -14.0769 0.0027 0.3345 0.9190 0.0000 0.0000 0.0000 18.3393 11.8885 -6.6662 -0.9027 -6.0548 16.9435 -0.2400 -9.1564 -16.6607 -0.0306 1.1283 -3.1020 0.7587 -1.3426 -6.1519 0.2644 -1.8157 -8.1147 -0.1794 -0.9481 -4.9877 8.6438 3.1668 -10.2205 -6.7342 4.7548 32.5698 -3.4775 2.3160 12.9199 -0.0000 0.0000 0.0000 -90.9533 12.2004 11.4743 16.4061 -26.0681 -3.8227 -0.0000 -0.0000 18.3324 5.4625 14.7454 1.3943 -7.1250 0.0000 -0.0000 -20.0956 43.8230 0.6098 -0.0000 0.0000 0.0000 87.7899 -7.0616 20.8207 -13.7363 22.3564 -2.7270 0.0000 0.0000 10.0424 -9.8725 -9.6206 1.6660 7.1250 -0.0000 -0.0000 14.8107 -39.3166 2.1288
0.3292 15.9683 6.2668 0.3290 -2.6035 8.6685 0.0000 0.0000 0.0000 -20.2106 -19.1409 3.9596 0.0373 1.2459 3.4257 -1.3337 20.7281 -14.0727 0.0028 0.3396 0.9332 0.0000 0.0000 0.0000 18.3420 11.8859 -6.6647 -0.9022 -6.0532 16.9387 -0.2401 -9.1498 -16.6538 -0.0305 1.1268 -3.0977 0.7530 -1.3405 -6.1632 0.2672 -1.8127 -8.1161 -0.1736 -0.9462 -4.9826 8.6050 3.1266 -10.2264 -6.6618 4.6832 32.6596 -3.4549 2.2887 12.9490 0.0000 0.0000 0.0000 -90.9876 12.2161 11.5027 16.4180 -26.0841 -3.8279 -0.0000 -0.0000 18.2908 5.4932 14.7559 1.4031 -7.1250 0.0000 -0.0000 -20.0727 43.8363 0.6021 0.0000 0.0000 0.0000 87.8240 -7.0388 21.0460 -13.7845 22.4257 -2.7453 0.0000 0.0000 10.0571 -9.8474 -9.4572 1.6337 7.1250 -0.0000 -0.0000 14.7932 -39.1546 2.1868
0.3287 15.9684 6.2670 0.3279 -2.6080 8.6702 0.0000 0.0000 0.0000 -20.2075 -19.1363 3.9578 0.0373 1.2459 3.4257 -1.3330 20.7251 -14.0771 0.0029 0.3461 0.9509 0.0000 0.0000 0.0000 18.3440 11.8902 -6.6630 -0.9017 -6.0517 16.9344 -0.2396 -9.1492 -16.6467 -0.0303 1.1245 -3.0916 0.7467 -1.3383 -6.1736 0.2705 -1.8095 -8.1187 -0.1668 -0.9442 -4.9792 8.5667 3.0873 -10.2313 -6.5913 4.6136 32.7475 -3.4329 2.2622 12.9775 0.0000 0.0000 0.0000 -91.0231 12.2324 11.5150 16.4295 -26.0995 -3.8330 -0.0000 -0.0000 18.2176 5.5224 14.7817 1.4131 -7.1250 0.0000 -0.0000 -20.0563 43.8637 0.5874 0.0000 0.0000 0.0000 87.8605 -7.0214 21.2167 -13.8321 22.4941 -2.7635 0.0000 0.0000 10.0451 -9.8188 -9.2821 1.5990 7.1250 -0.0000 -0.0000 14.7763 -38.9811 2.2490
0.3282 15.9685 6.2671 0.3272 -2.6106 8.6726 0.0000 0.0000 0.0000 -20.2061 -19.1289 3.9694 0.0367 1.2362 3.3990 -1.3339 20.7272 -14.0647 0.0029 0.3493 0.9596 0.0000 0.0000 0.0000 18.3461 11.8960 -6.6630 -0.9017 -6.0516 16.9343 -0.2393 -9.1503 -16.6442 -0.0303 1.1230 -3.0872 0.7392 -1.3365 -6.1814 0.2744 -1.8069 -8.1223 -0.1587 -0.9424 -4.9782 8.5288 3.0486 -10.2365 -6.5236 4.5454 32.8335 -3.4117 2.2361 13.0057 -0.0000 -0.0000 0.0000 -91.0612 12.2528 11.5091 16.4428 -26.1174 -3.8388 -0.0000 -0.0000 18.1353 5.5510 14.8173 1.4238 -7.1250 0.0000 -0.0000 -20.0440 43.9003 0.5681 -0.0000 -0.0000 0.0000 87.8971 -7.0127 21.3630 -13.8887 22.5754 -2.7853 0.0000 0.0000 9.9685 -9.7921 -9.1730 1.5760 7.1250 -0.0000 -0.0000 14.7734 -38.8723 2.2892
0.3278 15.9686 6.2674 0.3275 -2.6111 8.6753 0.0000 0.0000 0.0000 -20.2067 -19.1216 3.9872 0.0359 1.2224 3.3609 -1.3356 20.7329 -14.0442 0.0029 0.3480 0.9562 0.0000 0.0000 0.0000 18.3465 11.8996 -6.6647 -0.9019 -6.0523 16.9363 -0.2393 -9.1494 -16.6436 -0.0302 1.1209 -3.0815 0.7315 -1.3352 -6.1889 0.2778 -1.8048 -8.1248 -0.1510 -0.9408 -4.9763 8.4927 3.0111 -10.2448 -6.4579 4.4788 32.9171 -3.3913 2.2106 13.0339 -0.0000 -0.0000 0.0000 -91.0975 12.2695 11.4857 16.4493 -26.1261 -3.8417 -0.0000 -0.0000 18.0690 5.5826 14.8534 1.4353 -7.1250 0.0000 -0.0000 -20.0292 43.9378 0.5483 -0.0000 -0.0000 0.0000 87.9350 -7.0089 21.4867 -13.9531 22.6675 -2.8100 0.0000 0.0000 9.8273 -9.7716 -9.1330 1.5658 7.1250 -0.0000 -0.0000 14.7814 -38.8315 2.3057
0.3273 15.9688 6.2676 0.3273 -2.6093 8.6791 0.0000 0.0000 0.0000 -20.2060 -19.1166 4.0049 0.0350 1.2081 3.3215 -1.3373 20.7389 -14.0237 0.0029 0.3467 0.9525 0.0000 0.0000 0.0000 18.3480 11.9045 -6.6668 -0.9022 -6.0532 16.9389 -0.2394 -9.1510 -16.6462 -0.0299 1.1169 -3.0706 0.7246 -1.3330 -6.1968 0.2804 -1.8018 -8.1262 -0.1446 -0.9388 -4.9730 8.4566 2.9732 -10.2567 -6.3923 4.4112 32.9983 -3.3710 2.1847 13.0619 0.0000 0.0000 0.0000 -91.1307 12.2834 11.4459 16.4495 -26.1263 -3.8417 -0.0000 -0.0000 18.0355 5.6149 14.8926 1.4474 -7.1250 0.0000 -0.0000 -20.0151 43.9783 0.5269 0.0000 0.0000 0.0000 87.9752 -7.0073 21.5822 -14.0204 22.7639 -2.8360 0.0000 0.0000 9.6302 -9.7599 -9.1489 1.5666 7.1250 -0.0000 -0.0000 14.7949 -38.8462 2.3024
0.3269 15.9689 6.2678 0.3293 -2.6048 8.6830 0.0000 0.0000 0.0000 -20.2079 -19.1157 4.0210 0.0343 1.1955 3.2870 -1.3390 20.7451 -14.0052 0.0028 0.3428 0.9420 0.0000 0.0000 0.0000 18.3467 11.9051 -6.6694 -0.9024 -6.0538 16.9405 -0.2396 -9.1511 -16.6499 -0.0298 1.1135 -3.0612 0.7155 -1.3318 -6.2035 0.2831 -1.7997 -8.1281 -0.1369 -0.9372 -4.9709 8.4174 2.9349 -10.2652 -6.3258 4.3434 33.0754 -3.3496 2.1584 13.0875 -0.0000 -0.0000 0.0000 -91.1623 12.2976 11.3922 16.4418 -26.1161 -3.8384 -0.0000 -0.0000 18.0398 5.6514 14.9325 1.4607 -7.1250 0.0000 -0.0000 -19.9974 44.0200 0.5049 -0.0000 -0.0000 0.0000 88.0120 -7.0131 21.6601 -14.0908 22.8643 -2.8633 0.0000 0.0000 9.3898 -9.7519 -9.1998 1.5740 7.1250 -0.0000 -0.0000 14.8134 -38.8954 2.2870
0.3265 15.9691 6.2681 0.3275 -2.5992 8.6877 0.0000 0.0000 0.0000 -20.2047 -19.1170 4.0317 0.0338 1.1864 3.2619 -1.3403 20.7498 -13.9932 0.0028 0.3419 0.9395 0.0000 0.0000 0.0000 18.3501 11.9066 -6.6713 -0.9024 -6.0538 16.9406 -0.2397 -9.1546 -16.6543 -0.0296 1.1101 -3.0519 0.7100 -1.3302 -6.2121 0.2864 -1.7974 -8.1279 -0.1305 -0.9357 -4.9655 8.3776 2.8972 -10.2769 -6.2597 4.2763 33.1505 -3.3281 2.1322 13.1130 -0.0000 -0.0000 0.0000 -91.1885 12.3087 11.3327 16.4267 -26.0958 -3.8317 -0.0000 -0.0000 18.0707 5.6906 14.9782 1.4753 -7.1250 0.0000 -0.0000 -19.9794 44.0672 0.4801 -0.0000 -0.0000 0.0000 88.0471 -7.0194 21.7172 -14.1587 22.9612 -2.8897 0.0000 0.0000 9.1209 -9.7513 -9.2712 1.5860 7.1250 -0.0000 -0.0000 14.8305 -38.9653 2.2636
0.3261 15.9691 6.2684 0.3259 -2.5936 8.6927 0.0000 0.0000 0.0000 -20.2009 -19.1212 4.0348 0.0336 1.1823 3.2507 -1.3410 20.7527 -13.9865 0.0028 0.3397 0.9333 0.0000 0.0000 0.0000 18.3534 11.9085 -6.6722 -0.9021 -6.0530 16.9382 -0.2394 -9.1604 -16.6573 -0.0294 1.1064 -3.0416 0.7041 -1.3288 -6.2208 0.2907 -1.7953 -8.1278 -0.1230 -0.9341 -4.9602 8.3348 2.8595 -10.2866 -6.1944 4.2102 33.2231 -3.3062 2.1061 13.1372 0.0000 0.0000 0.0000 -91.2115 12.3214 11.2708 16.4059 -26.0680 -3.8226 -0.0000 -0.0000 18.1190 5.7288 15.0333 1.4906 -7.1250 0.0000 -0.0000 -19.9657 44.1233 0.4509 0.0000 0.0000 0.0000 88.0775 -7.0297 21.7528 -14.2225 23.0518 -2.9146 0.0000 0.0000 8.8426 -9.7487 -9.3549 1.5997 7.1250 -0.0000 -0.0000 14.8523 -39.0469 2.2365
0.3257 15.9692 6.2687 0.3238 -2.5881 8.6980 0.0000 0.0000 0.0000 -20.1955 -19.1286 4.0290 0.0337 1.1843 3.2562 -1.3410 20.7533 -13.9877 0.0027 0.3362 0.9237 0.0000 0.0000 0.0000 18.3571 11.9100 -6.6724 -0.9016 -6.0512 16.9331 -0.2390 -9.1670 -16.6592 -0.0292 1.1030 -3.0322 0.6986 -1.3272 -6.2307 0.2950 -1.7930 -8.1258 -0.1157 -0.9325 -4.9521 8.2915 2.8224 -10.2997 -6.1310 4.1454 33.2940 -3.2846 2.0803 13.1617 -0.0000 0.0000 0.0000 -91.2284 12.3326 11.2141 16.3807 -26.0341 -3.8115 -0.0000 -0.0000 18.1687 5.7748 15.0891 1.5081 -7.1250 0.0000 -0.0000 -19.9454 44.1810 0.4207 -0.0000 0.0000 0.0000 88.1038 -7.0443 21.7944 -14.2795 23.1329 -2.9370 0.0000 0.0000 8.4952 -9.8204 -9.3904 1.6177 7.1250 -0.0000 -0.0000 14.8004 -39.0872 2.2131
0.3253 15.9692 6.2690 0.3209 -2.5833 8.7054 0.0000 0.0000 0.0000 -20.1876 -19.1381 4.0143 0.0340 1.1904 3.2729 -1.3404 20.7515 -13.9964 0.0027 0.3347 0.9197 0.0000 0.0000 0.0000 18.3613 11.9143 -6.6735 -0.9008 -6.0487 16.9259 -0.2384 -9.1748 -16.6603 -0.0289 1.0984 -3.0195 0.6936 -1.3252 -6.2411 0.2999 -1.7900 -8.1242 -0.1081 -0.9305 -4.9443 8.2477 2.7862 -10.3143 -6.0688 4.0822 33.3646 -3.2632 2.0549 13.1867 -0.0000 0.0000 0.0000 -91.2397 12.3457 11.1617 16.3516 -25.9951 -3.7988 -0.0000 -0.0000 18.2122 5.8240 15.1424 1.5262 -7.1250 0.0000 -0.0000 -19.9215 44.2367 0.3916 -0.0000 0.0000 0.0000 88.1258 -7.0640 21.8223 -14.3286 23.2026 -2.9564 0.0000 0.0000 8.1415 -9.9173 -9.4067 1.6368 7.1250 -0.0000 -0.0000 14.7225 -39.1105 2.1922
